<svg id="svg" version="1.1" xmlns="http://www.w3.org/2000/svg" xmlns:xlink="http://www.w3.org/1999/xlink" width="400" height="400" viewBox="0, 0, 400,400"><g id="svgg"><path id="path0" d="M197.000 0.378 C 196.560 0.555,196.020 0.604,195.800 0.486 C 195.580 0.368,195.529 0.414,195.686 0.589 C 195.961 0.894,194.380 2.400,193.785 2.400 C 193.211 2.400,188.080 8.041,187.600 9.201 C 187.312 9.894,186.918 10.282,186.654 10.131 C 186.404 9.988,186.329 10.014,186.486 10.188 C 186.643 10.363,186.508 10.881,186.186 11.342 C 185.864 11.802,185.600 12.588,185.600 13.089 C 185.600 13.590,185.420 14.000,185.200 14.000 C 184.980 14.000,184.800 14.619,184.800 15.376 C 184.800 16.133,184.620 16.864,184.400 17.000 C 183.742 17.407,183.912 27.115,184.613 29.127 C 184.944 30.076,185.093 31.049,184.945 31.288 C 184.785 31.549,184.862 31.609,185.138 31.438 C 185.436 31.254,185.603 31.481,185.609 32.076 C 185.614 32.584,185.970 33.450,186.400 34.000 C 186.830 34.550,187.186 35.133,187.191 35.297 C 187.225 36.432,193.500 43.200,194.518 43.200 C 194.919 43.200,195.136 43.380,195.000 43.600 C 194.864 43.820,195.044 44.000,195.400 44.000 C 195.792 44.000,195.933 44.184,195.758 44.468 C 195.567 44.777,195.682 44.854,196.096 44.695 C 196.440 44.563,197.055 44.707,197.461 45.015 C 198.311 45.659,201.831 45.796,202.200 45.200 C 202.336 44.980,202.797 44.800,203.224 44.800 C 203.651 44.800,204.000 44.620,204.000 44.400 C 204.000 44.180,204.270 44.000,204.600 44.000 C 204.930 44.000,205.200 43.820,205.200 43.600 C 205.200 43.380,205.367 43.200,205.572 43.200 C 206.284 43.200,211.844 37.392,212.369 36.100 C 212.659 35.385,213.055 34.800,213.249 34.800 C 213.442 34.800,213.600 34.440,213.600 34.000 C 213.600 33.560,213.780 33.200,214.000 33.200 C 214.220 33.200,214.403 32.885,214.406 32.500 C 214.415 31.439,215.425 28.758,215.708 29.042 C 215.845 29.178,215.952 28.955,215.947 28.545 C 215.941 28.135,215.956 25.306,215.981 22.257 C 216.008 18.965,215.859 16.512,215.614 16.217 C 215.387 15.943,215.163 15.255,215.116 14.688 C 215.069 14.121,214.923 13.724,214.792 13.805 C 214.661 13.886,214.339 13.153,214.078 12.176 C 213.817 11.199,213.422 10.400,213.202 10.400 C 212.981 10.400,212.797 10.175,212.793 9.900 C 212.784 9.322,211.311 7.426,208.951 4.957 C 208.044 4.008,207.399 3.134,207.518 3.016 C 207.636 2.897,207.433 2.800,207.067 2.800 C 206.700 2.800,206.400 2.620,206.400 2.400 C 206.400 2.180,206.130 2.000,205.800 2.000 C 205.470 2.000,205.200 1.853,205.200 1.674 C 205.200 0.444,199.195 -0.505,197.000 0.378 M95.000 128.000 C 94.864 128.220,94.468 128.400,94.120 128.400 C 93.773 128.400,93.232 128.715,92.919 129.100 C 92.505 129.609,92.293 129.664,92.142 129.300 C 91.833 128.560,91.200 128.694,91.197 129.500 C 91.194 130.177,89.583 131.200,88.520 131.200 C 88.234 131.200,88.000 131.351,88.000 131.536 C 88.000 132.009,84.822 135.200,84.352 135.200 C 84.139 135.200,84.002 135.425,84.047 135.700 C 84.171 136.459,83.276 138.400,82.802 138.400 C 82.557 138.400,82.488 138.811,82.635 139.396 C 82.805 140.075,82.700 140.463,82.305 140.615 C 81.818 140.802,81.756 141.974,81.919 147.901 C 82.134 155.692,82.086 155.552,85.046 157.021 C 85.731 157.362,86.669 157.991,87.129 158.420 C 87.590 158.849,88.120 159.200,88.308 159.200 C 88.496 159.200,88.998 159.515,89.425 159.900 C 89.851 160.285,90.695 160.855,91.300 161.168 C 91.905 161.480,92.400 161.885,92.400 162.068 C 92.400 162.250,92.578 162.400,92.795 162.400 C 93.012 162.400,95.577 163.964,98.495 165.875 C 119.952 179.929,122.530 180.144,138.948 169.249 C 141.972 167.242,144.513 165.600,144.595 165.600 C 144.677 165.600,146.331 164.555,148.272 163.278 C 156.315 157.986,160.575 157.334,167.882 160.275 C 169.247 160.825,170.574 161.528,170.831 161.837 C 171.088 162.147,171.445 162.400,171.625 162.400 C 171.806 162.400,175.609 164.805,180.076 167.744 C 194.111 176.978,198.907 178.735,204.400 176.659 C 209.553 174.711,210.614 174.120,219.724 168.140 C 223.862 165.423,227.417 163.200,227.624 163.200 C 227.831 163.200,228.000 163.063,228.000 162.896 C 228.000 162.572,232.058 160.445,234.400 159.541 C 238.003 158.149,245.317 159.225,248.862 161.668 C 249.446 162.071,250.121 162.400,250.362 162.400 C 250.603 162.400,250.800 162.551,250.800 162.736 C 250.800 162.920,251.205 163.257,251.700 163.483 C 252.195 163.709,256.290 166.315,260.800 169.274 C 272.846 177.176,277.261 178.486,284.200 176.214 C 287.999 174.971,293.505 171.593,315.700 156.893 L 318.400 155.104 318.400 147.171 C 318.400 139.612,318.094 137.200,317.136 137.200 C 316.951 137.200,316.800 136.840,316.800 136.400 C 316.800 135.960,316.620 135.600,316.400 135.600 C 316.180 135.600,316.000 135.365,316.000 135.078 C 316.000 134.353,313.415 131.600,312.734 131.600 C 312.428 131.600,311.917 131.240,311.600 130.800 C 311.283 130.360,310.703 130.000,310.312 130.000 C 309.920 130.000,309.600 129.856,309.600 129.680 C 309.600 128.245,308.837 128.233,232.000 128.381 C 94.378 128.646,95.390 128.648,95.500 128.100 C 95.620 127.500,95.343 127.444,95.000 128.000 M161.906 193.061 C 158.176 195.027,157.448 200.182,160.492 203.068 C 161.642 204.158,168.140 208.400,168.660 208.400 C 168.768 208.400,169.608 208.903,170.528 209.517 C 175.106 212.577,179.119 212.122,181.152 208.314 C 183.413 204.077,181.944 201.775,173.800 196.791 C 166.174 192.123,164.614 191.634,161.906 193.061 M62.800 232.778 C 62.800 233.386,60.867 233.754,60.271 233.259 C 59.888 232.941,59.585 233.026,59.106 233.585 C 58.696 234.063,58.154 234.261,57.629 234.124 C 57.058 233.974,56.800 234.096,56.800 234.516 C 56.800 234.928,56.541 235.057,56.000 234.916 C 55.435 234.768,55.200 234.904,55.200 235.377 C 55.200 235.746,55.035 235.945,54.834 235.821 C 54.632 235.696,53.926 236.136,53.264 236.797 C 52.603 237.459,51.765 238.000,51.402 238.000 C 50.536 238.000,49.477 239.078,49.811 239.619 C 49.956 239.852,49.642 240.439,49.115 240.922 C 48.587 241.405,47.944 242.295,47.686 242.900 C 47.428 243.505,47.050 244.000,46.846 244.000 C 46.642 244.000,46.563 244.335,46.670 244.745 C 46.786 245.189,46.612 245.586,46.239 245.730 C 45.771 245.909,45.678 246.291,45.870 247.252 C 46.095 248.373,46.036 248.499,45.405 248.257 C 44.742 248.003,44.705 248.180,44.942 250.449 C 45.084 251.807,45.207 255.546,45.215 258.759 L 45.229 264.600 52.285 269.200 C 56.165 271.730,59.525 273.872,59.752 273.961 C 59.978 274.049,60.521 274.454,60.957 274.861 C 61.394 275.267,61.987 275.600,62.275 275.600 C 62.564 275.600,62.800 275.780,62.800 276.000 C 62.800 276.220,63.070 276.400,63.400 276.400 C 63.730 276.400,64.000 276.580,64.000 276.800 C 64.000 277.020,64.270 277.200,64.600 277.200 C 64.930 277.200,65.200 277.380,65.200 277.600 C 65.200 277.820,65.393 278.000,65.628 278.000 C 65.863 278.000,66.813 278.521,67.738 279.157 C 79.590 287.312,84.656 286.769,101.832 275.505 C 120.450 263.296,121.873 263.249,138.725 274.281 C 143.193 277.207,146.959 279.600,147.093 279.600 C 147.227 279.600,147.621 279.853,147.969 280.162 C 148.824 280.922,154.575 283.788,156.800 284.562 C 161.456 286.182,167.014 284.471,175.600 278.775 C 199.760 262.748,199.993 262.729,219.161 275.348 C 234.370 285.359,238.856 286.738,245.896 283.564 C 246.828 283.144,247.756 282.800,247.957 282.800 C 248.159 282.800,250.235 281.540,252.572 280.000 C 254.909 278.460,256.905 277.200,257.008 277.200 C 257.111 277.200,259.852 275.463,263.098 273.340 C 270.157 268.723,270.876 268.317,273.200 267.635 C 274.190 267.344,275.522 266.948,276.160 266.753 C 277.710 266.281,279.647 266.308,281.923 266.833 C 285.576 267.677,287.015 268.453,296.527 274.710 C 300.967 277.630,304.870 280.136,305.200 280.277 C 305.530 280.419,306.520 281.019,307.400 281.611 C 313.172 285.493,321.264 285.689,328.084 282.110 C 329.248 281.500,330.290 280.885,330.400 280.745 C 330.510 280.605,331.190 280.155,331.912 279.745 C 334.351 278.360,354.598 265.028,354.894 264.612 C 355.357 263.962,355.267 247.600,354.800 247.600 C 354.580 247.600,354.400 247.060,354.400 246.400 C 354.400 245.740,354.220 245.200,354.000 245.200 C 353.780 245.200,353.600 244.840,353.600 244.400 C 353.600 243.960,353.401 243.600,353.157 243.600 C 352.914 243.600,352.812 243.346,352.931 243.036 C 353.052 242.721,352.718 242.150,352.174 241.741 C 351.638 241.339,351.200 240.778,351.200 240.495 C 351.200 239.820,347.775 236.400,347.099 236.400 C 346.812 236.400,346.317 236.040,346.000 235.600 C 345.683 235.160,345.093 234.800,344.688 234.800 C 344.284 234.800,344.064 234.620,344.200 234.400 C 344.347 234.162,343.871 234.000,343.024 234.000 C 342.241 234.000,341.600 233.820,341.600 233.600 C 341.600 233.380,341.096 233.200,340.480 233.200 C 339.864 233.200,339.189 233.035,338.980 232.834 C 338.750 232.612,308.020 232.617,261.200 232.845 C 187.382 233.206,92.617 233.081,72.300 232.598 C 65.984 232.448,62.800 232.508,62.800 232.778 M220.978 302.948 C 220.305 303.196,219.282 303.712,218.703 304.092 C 218.125 304.473,217.055 305.124,216.326 305.539 C 209.778 309.264,206.400 311.789,206.400 312.958 C 206.400 313.285,206.220 313.664,206.000 313.800 C 204.749 314.573,206.145 319.097,208.074 320.523 C 211.020 322.702,213.305 322.161,220.944 317.476 C 229.588 312.175,231.364 308.644,227.388 304.668 C 225.439 302.719,223.211 302.121,220.978 302.948 M135.710 315.230 C 132.029 315.985,129.858 319.300,130.786 322.748 C 131.590 325.735,132.573 326.407,143.583 331.496 C 151.005 334.927,157.406 329.948,153.775 323.569 C 152.331 321.033,138.514 314.655,135.710 315.230 " stroke="none" fill="#fab271" fill-rule="evenodd"></path><path id="path1" d="M80.800 193.745 L 80.800 232.307 81.700 232.548 C 82.900 232.870,164.805 232.863,250.134 232.534 L 319.200 232.267 319.200 193.934 C 319.200 168.645,319.064 155.600,318.800 155.600 C 318.580 155.600,318.400 155.780,318.400 156.000 C 318.400 156.220,318.040 156.400,317.600 156.400 C 317.160 156.400,316.800 156.550,316.800 156.732 C 316.800 156.915,316.305 157.320,315.700 157.632 C 315.095 157.945,314.251 158.515,313.825 158.900 C 313.398 159.285,312.813 159.600,312.525 159.600 C 312.236 159.600,312.000 159.780,312.000 160.000 C 312.000 160.220,311.764 160.400,311.475 160.400 C 311.187 160.400,310.602 160.715,310.175 161.100 C 309.749 161.485,308.905 162.055,308.300 162.368 C 307.695 162.680,307.200 163.085,307.200 163.268 C 307.200 163.450,307.029 163.600,306.820 163.600 C 306.610 163.600,303.298 165.670,299.460 168.200 C 295.621 170.730,292.282 172.800,292.040 172.800 C 291.798 172.800,291.600 172.937,291.600 173.104 C 291.600 173.272,290.385 174.012,288.900 174.749 C 287.415 175.487,285.887 176.250,285.505 176.445 C 285.123 176.640,284.369 176.800,283.829 176.800 C 283.289 176.800,282.736 176.980,282.600 177.200 C 282.278 177.722,275.322 177.722,275.000 177.200 C 274.864 176.980,274.144 176.800,273.400 176.800 C 272.656 176.800,271.936 176.620,271.800 176.400 C 271.664 176.180,271.203 176.000,270.776 176.000 C 270.349 176.000,270.000 175.820,270.000 175.600 C 270.000 175.380,269.736 175.200,269.414 175.200 C 269.091 175.200,267.246 174.183,265.314 172.940 C 257.384 167.840,255.782 166.800,255.400 166.507 C 255.180 166.338,254.505 165.945,253.900 165.632 C 253.295 165.320,252.800 164.915,252.800 164.732 C 252.800 164.550,252.607 164.400,252.372 164.400 C 252.137 164.400,251.159 163.860,250.200 163.200 C 249.241 162.540,248.263 162.000,248.028 162.000 C 247.793 162.000,247.599 161.865,247.597 161.700 C 247.593 161.299,245.619 160.400,244.744 160.400 C 244.361 160.400,243.936 160.220,243.800 160.000 C 243.661 159.775,241.737 159.600,239.400 159.600 C 237.063 159.600,235.139 159.775,235.000 160.000 C 234.864 160.220,234.409 160.400,233.989 160.400 C 233.043 160.400,229.328 162.395,227.845 163.700 C 227.407 164.085,226.813 164.400,226.525 164.400 C 226.236 164.400,226.000 164.580,226.000 164.800 C 226.000 165.020,225.764 165.200,225.475 165.200 C 225.187 165.200,224.564 165.560,224.092 166.000 C 223.620 166.440,223.145 166.800,223.037 166.800 C 222.929 166.800,220.770 168.150,218.239 169.800 C 215.708 171.450,213.532 172.800,213.402 172.800 C 213.273 172.800,212.780 173.160,212.308 173.600 C 211.836 174.040,211.213 174.400,210.925 174.400 C 210.636 174.400,210.400 174.547,210.400 174.728 C 210.400 174.908,209.500 175.300,208.400 175.600 C 207.300 175.900,206.400 176.253,206.400 176.385 C 206.400 176.903,202.465 177.753,200.000 177.769 C 197.423 177.784,193.600 176.915,193.600 176.313 C 193.600 176.141,193.255 176.000,192.833 176.000 C 192.412 176.000,192.007 175.865,191.933 175.700 C 191.860 175.535,190.900 174.953,189.800 174.407 C 188.700 173.861,183.840 170.819,179.000 167.647 C 168.941 161.056,167.843 160.400,166.868 160.400 C 166.479 160.400,165.942 160.182,165.675 159.915 C 165.006 159.246,156.874 159.234,155.461 159.900 C 154.877 160.175,153.905 160.616,153.300 160.881 C 151.981 161.458,149.042 163.301,137.853 170.575 C 134.582 172.701,131.072 174.806,130.053 175.253 C 129.034 175.700,127.887 176.231,127.505 176.433 C 127.123 176.635,126.451 176.800,126.011 176.800 C 125.571 176.800,124.417 177.012,123.447 177.272 C 121.640 177.755,116.316 177.136,115.420 176.338 C 115.211 176.152,114.626 176.000,114.120 176.000 C 113.614 176.000,113.200 175.864,113.200 175.698 C 113.200 175.531,112.615 175.141,111.900 174.830 C 111.185 174.519,109.303 173.395,107.718 172.332 C 106.133 171.270,104.648 170.400,104.418 170.400 C 104.188 170.400,104.000 170.241,104.000 170.046 C 104.000 169.851,103.415 169.399,102.700 169.043 C 101.985 168.686,97.440 165.777,92.600 162.578 C 87.760 159.379,83.125 156.407,82.300 155.973 L 80.800 155.184 80.800 193.745 M225.745 186.722 C 233.242 191.813,229.978 202.529,220.919 202.566 C 214.155 202.594,209.532 193.842,213.895 189.271 C 214.173 188.981,214.400 188.584,214.400 188.391 C 214.400 185.722,222.515 184.529,225.745 186.722 M167.481 192.492 C 168.097 192.762,168.690 193.077,168.800 193.192 C 169.176 193.583,171.399 194.849,172.100 195.071 C 172.485 195.193,172.800 195.452,172.800 195.647 C 172.800 195.841,172.993 196.000,173.228 196.000 C 173.463 196.000,174.441 196.540,175.400 197.200 C 176.359 197.860,177.304 198.400,177.500 198.400 C 178.145 198.400,181.209 201.258,181.810 202.420 C 184.817 208.235,178.078 214.284,172.151 211.089 C 170.077 209.970,162.668 205.510,162.400 205.218 C 162.290 205.098,161.848 204.805,161.418 204.568 C 154.192 200.574,159.919 189.167,167.481 192.492 M280.599 194.317 C 285.774 195.194,288.781 202.478,285.871 207.087 C 281.082 214.674,269.882 211.537,269.847 202.600 C 269.831 198.565,272.990 194.415,276.091 194.394 C 276.591 194.391,277.270 194.212,277.600 193.998 C 277.930 193.784,278.470 193.722,278.800 193.861 C 279.130 194.000,279.940 194.205,280.599 194.317 M138.362 199.589 C 141.223 200.409,143.127 202.341,144.289 205.600 C 147.195 213.753,136.074 220.445,129.935 214.237 C 127.750 212.028,126.224 206.251,127.600 205.400 C 127.820 205.264,128.000 204.803,128.000 204.376 C 128.000 203.949,128.180 203.600,128.400 203.600 C 128.620 203.600,128.800 203.339,128.800 203.020 C 128.800 200.801,134.924 198.603,138.362 199.589 M255.311 206.105 C 257.336 208.149,258.224 210.603,257.548 212.286 C 255.908 216.367,255.691 216.523,244.600 221.578 C 239.203 224.038,237.190 223.950,234.343 221.129 C 230.539 217.360,232.253 212.221,238.256 209.401 C 239.545 208.795,242.400 207.426,244.600 206.359 C 250.206 203.641,252.807 203.579,255.311 206.105 M44.000 303.800 C 44.000 338.200,44.071 342.800,44.600 342.800 C 44.930 342.800,45.200 342.935,45.200 343.100 C 45.200 343.537,353.895 343.220,355.048 342.782 L 356.000 342.420 356.000 303.810 C 356.000 282.574,355.865 265.204,355.700 265.209 C 355.535 265.214,354.950 265.570,354.400 266.000 C 353.850 266.430,353.175 266.786,352.900 266.791 C 352.625 266.796,352.400 266.980,352.400 267.200 C 352.400 267.420,352.212 267.600,351.982 267.600 C 351.650 267.600,348.102 269.829,345.780 271.498 C 345.548 271.664,344.963 272.025,344.480 272.300 C 343.996 272.575,343.204 273.025,342.720 273.300 C 342.237 273.575,341.483 274.115,341.045 274.500 C 340.607 274.885,340.096 275.200,339.908 275.200 C 339.720 275.200,339.211 275.531,338.777 275.936 C 338.342 276.341,337.495 276.926,336.893 277.236 C 336.292 277.546,335.451 278.115,335.025 278.500 C 334.598 278.885,334.096 279.200,333.908 279.200 C 333.720 279.200,333.180 279.560,332.708 280.000 C 332.236 280.440,331.613 280.800,331.325 280.800 C 331.036 280.800,330.800 280.959,330.800 281.153 C 330.800 281.348,330.485 281.610,330.100 281.736 C 329.715 281.862,328.630 282.423,327.689 282.982 C 326.748 283.542,325.634 284.000,325.213 284.000 C 324.792 284.000,324.348 284.160,324.227 284.356 C 323.701 285.207,317.139 285.819,315.030 285.214 C 314.134 284.956,312.770 284.566,312.000 284.346 C 310.294 283.858,307.050 282.312,306.867 281.900 C 306.793 281.735,306.512 281.600,306.242 281.600 C 305.972 281.600,305.402 281.285,304.975 280.900 C 304.549 280.515,303.705 279.945,303.100 279.632 C 302.495 279.320,302.000 278.915,302.000 278.732 C 302.000 278.550,301.813 278.400,301.585 278.400 C 301.075 278.400,293.852 273.595,293.667 273.132 C 293.593 272.950,293.276 272.800,292.963 272.800 C 292.649 272.800,291.539 272.210,290.496 271.490 C 288.823 270.333,286.607 269.151,283.694 267.860 C 279.854 266.158,270.343 268.380,266.515 271.874 C 266.229 272.134,265.636 272.462,265.198 272.601 C 264.759 272.740,264.400 273.022,264.400 273.227 C 264.400 273.432,264.164 273.600,263.875 273.600 C 263.587 273.600,262.964 273.960,262.492 274.400 C 262.020 274.840,261.396 275.200,261.105 275.200 C 260.814 275.200,260.317 275.560,260.000 276.000 C 259.683 276.440,259.103 276.800,258.712 276.800 C 258.320 276.800,258.000 276.959,258.000 277.153 C 258.000 277.348,257.685 277.607,257.300 277.729 C 256.539 277.970,254.323 279.253,254.000 279.639 C 252.459 281.483,244.533 285.042,241.100 285.431 C 236.694 285.931,229.266 283.258,224.917 279.606 C 224.651 279.383,224.337 279.200,224.220 279.200 C 224.102 279.200,220.809 277.079,216.903 274.486 C 205.281 266.772,200.824 265.499,194.223 268.011 C 191.507 269.044,190.955 269.372,181.491 275.584 C 178.462 277.573,175.822 279.200,175.625 279.200 C 175.428 279.200,175.207 279.361,175.133 279.558 C 174.948 280.055,172.856 281.273,168.400 283.481 C 161.660 286.821,155.714 285.973,147.490 280.500 C 146.561 279.882,145.305 279.126,144.700 278.820 C 144.095 278.515,143.600 278.115,143.600 277.932 C 143.600 277.750,143.364 277.600,143.075 277.600 C 142.787 277.600,142.164 277.240,141.692 276.800 C 141.220 276.360,140.731 276.000,140.605 276.000 C 140.479 276.000,138.267 274.587,135.688 272.859 C 122.960 264.332,119.371 264.519,104.297 274.498 C 100.391 277.084,97.104 279.200,96.993 279.200 C 96.882 279.200,95.919 279.813,94.853 280.563 C 88.602 284.957,82.017 286.163,75.775 284.058 C 72.814 283.060,71.301 282.191,63.800 277.182 C 60.500 274.978,57.530 273.055,57.200 272.908 C 56.870 272.761,56.420 272.497,56.200 272.321 C 54.598 271.042,44.629 264.800,44.188 264.800 C 44.085 264.800,44.000 282.350,44.000 303.800 M171.571 297.158 C 175.414 300.080,176.503 306.198,173.702 309.131 C 173.423 309.423,173.010 310.008,172.783 310.431 C 172.557 310.854,172.108 311.200,171.786 311.200 C 171.464 311.200,171.200 311.358,171.200 311.551 C 171.200 312.228,168.704 312.928,166.369 312.906 C 158.992 312.837,154.962 303.705,160.015 298.507 C 163.012 295.424,168.455 294.788,171.571 297.158 M226.000 302.850 C 231.205 306.000,230.955 311.837,225.466 315.336 C 222.896 316.975,217.529 320.229,215.735 321.236 C 208.058 325.549,201.301 316.003,207.912 310.183 C 208.510 309.656,209.225 309.220,209.500 309.213 C 209.775 309.206,210.001 309.065,210.003 308.900 C 210.005 308.735,210.410 308.403,210.903 308.162 C 211.396 307.921,213.060 306.941,214.600 305.984 C 221.584 301.645,223.252 301.187,226.000 302.850 M111.562 304.789 C 120.851 307.453,119.050 321.176,109.401 321.250 C 101.178 321.313,97.680 311.471,104.083 306.288 C 106.183 304.589,108.938 304.037,111.562 304.789 M254.073 309.930 C 260.166 311.461,262.451 320.093,257.880 324.310 C 255.123 326.854,250.174 327.700,248.000 326.000 C 247.450 325.570,246.841 325.214,246.647 325.209 C 244.857 325.164,241.780 317.478,243.200 316.600 C 243.420 316.464,243.600 315.994,243.600 315.555 C 243.600 313.621,247.290 310.007,249.279 309.994 C 249.785 309.991,250.470 309.808,250.800 309.589 C 251.130 309.369,251.760 309.296,252.200 309.425 C 252.640 309.555,253.483 309.782,254.073 309.930 M291.062 309.980 C 291.908 310.409,294.850 311.843,297.600 313.165 C 304.530 316.498,305.600 317.571,305.600 321.188 C 305.600 326.985,300.510 329.570,294.662 326.743 C 293.816 326.335,292.871 326.000,292.562 326.000 C 292.253 326.000,292.000 325.820,292.000 325.600 C 292.000 325.380,291.748 325.200,291.441 325.200 C 291.133 325.200,289.855 324.660,288.600 324.000 C 287.345 323.340,286.144 322.800,285.931 322.800 C 283.853 322.800,280.400 318.428,280.400 315.796 C 280.400 313.572,282.539 310.000,283.870 310.000 C 284.161 310.000,284.400 309.820,284.400 309.600 C 284.400 308.854,289.406 309.140,291.062 309.980 M140.600 315.604 C 153.141 321.401,154.043 321.989,154.818 324.867 C 156.084 329.568,152.394 334.092,147.808 333.463 C 144.602 333.024,132.757 327.227,131.430 325.448 C 126.903 319.380,133.485 312.314,140.600 315.604 " stroke="none" fill="#7e5334" fill-rule="evenodd"></path><path id="path2" d="M212.000 61.141 C 212.000 61.306,211.187 61.954,210.194 62.582 C 203.774 66.640,203.200 68.740,203.200 88.175 L 203.200 102.796 211.700 102.572 C 216.375 102.450,220.605 102.267,221.100 102.167 L 222.000 101.985 222.050 88.392 C 222.078 80.917,222.134 74.575,222.175 74.300 C 222.216 74.025,222.123 73.620,221.968 73.400 C 221.813 73.180,221.604 72.262,221.503 71.360 C 221.261 69.209,219.722 66.085,218.200 64.659 C 216.034 62.629,212.000 60.340,212.000 61.141 M218.600 186.483 C 211.948 188.808,211.250 197.871,217.481 201.024 C 225.706 205.185,232.999 194.758,226.529 188.088 C 224.887 186.394,221.066 185.621,218.600 186.483 M284.446 310.450 C 281.840 311.978,280.879 314.117,281.404 317.224 C 281.777 319.434,283.105 320.518,288.762 323.234 C 291.533 324.564,294.492 326.001,295.338 326.426 C 300.677 329.113,306.327 324.866,304.559 319.494 C 303.792 317.164,302.718 316.310,297.400 313.806 C 287.383 309.088,286.958 308.978,284.446 310.450 M247.662 311.385 C 243.581 314.269,242.587 318.963,245.275 322.654 C 251.516 331.225,263.970 322.423,258.129 313.570 C 256.042 310.406,250.642 309.279,247.662 311.385 M20.500 342.700 C 24.845 342.764,31.955 342.764,36.300 342.700 C 40.645 342.635,37.090 342.582,28.400 342.582 C 19.710 342.582,16.155 342.635,20.500 342.700 M363.700 342.700 C 368.045 342.764,375.155 342.764,379.500 342.700 C 383.845 342.635,380.290 342.582,371.600 342.582 C 362.910 342.582,359.355 342.635,363.700 342.700 M1.600 352.000 C 1.600 352.440,1.420 352.800,1.200 352.800 C 0.527 352.800,0.694 359.951,1.383 360.640 C 1.704 360.961,1.864 361.488,1.740 361.812 C 1.616 362.135,1.675 362.400,1.871 362.400 C 2.067 362.400,2.520 362.895,2.879 363.500 C 4.180 365.698,6.882 368.000,8.162 368.000 C 8.513 368.000,8.800 368.180,8.800 368.400 C 8.800 368.620,9.629 368.800,10.643 368.800 C 11.980 368.800,12.431 368.941,12.288 369.314 C 12.145 369.688,12.461 369.786,13.445 369.671 C 14.842 369.508,15.368 370.193,14.100 370.524 C 13.715 370.625,13.974 370.728,14.676 370.754 C 15.378 370.779,16.064 370.620,16.200 370.400 C 16.579 369.787,39.559 369.894,40.672 370.514 C 41.151 370.781,42.772 372.170,44.275 373.600 C 45.777 375.030,48.085 377.177,49.403 378.372 C 51.666 380.423,52.974 381.627,59.208 387.400 C 60.634 388.720,63.862 391.690,66.381 394.000 C 68.900 396.310,71.383 398.605,71.899 399.100 L 72.836 400.000 212.741 400.000 L 352.645 400.000 354.950 397.900 C 356.218 396.745,358.396 394.688,359.791 393.330 C 361.185 391.971,362.433 390.966,362.563 391.096 C 362.693 391.227,362.800 391.048,362.800 390.700 C 362.800 390.352,362.979 390.007,363.197 389.933 C 363.817 389.725,366.459 387.375,371.325 382.705 C 373.786 380.342,376.055 378.407,376.367 378.405 C 376.678 378.402,376.829 378.296,376.701 378.168 C 376.573 378.040,377.213 377.275,378.122 376.468 C 379.031 375.661,380.330 374.460,381.009 373.800 C 381.687 373.140,382.816 372.150,383.517 371.600 C 384.219 371.050,384.794 370.352,384.796 370.048 C 384.799 369.631,385.239 369.545,386.600 369.699 C 387.960 369.852,388.400 369.767,388.400 369.351 C 388.400 368.975,388.908 368.800,390.000 368.800 C 390.880 368.800,391.600 368.620,391.600 368.400 C 391.600 368.180,391.870 368.000,392.200 368.000 C 392.530 368.000,392.800 367.820,392.800 367.600 C 392.800 367.380,393.075 367.200,393.411 367.200 C 394.204 367.200,397.600 363.804,397.600 363.011 C 397.600 362.675,397.780 362.400,398.000 362.400 C 398.220 362.400,398.400 362.040,398.400 361.600 C 398.400 361.160,398.625 360.800,398.900 360.801 C 399.566 360.802,399.349 353.579,398.642 352.217 L 398.140 351.248 396.087 353.156 C 393.946 355.145,392.299 355.991,389.094 356.749 C 386.365 357.395,13.635 357.395,10.906 356.749 C 7.693 355.990,6.053 355.144,3.887 353.132 C 1.489 350.903,1.600 350.959,1.600 352.000 " stroke="none" fill="#69bee1" fill-rule="evenodd"></path><path id="path3" d="M194.676 58.658 C 194.511 58.822,193.796 58.990,193.088 59.029 C 192.380 59.068,191.260 59.337,190.600 59.627 C 189.940 59.916,189.130 60.182,188.800 60.217 C 188.470 60.253,187.964 60.308,187.676 60.341 C 187.388 60.373,187.281 60.607,187.438 60.862 C 187.612 61.144,187.548 61.215,187.274 61.045 C 186.049 60.289,179.777 65.813,179.332 68.041 C 179.204 68.679,178.942 69.200,178.750 69.200 C 178.558 69.200,178.400 69.909,178.400 70.776 C 178.400 71.643,178.220 72.464,178.000 72.600 C 177.745 72.757,177.600 78.122,177.600 87.377 L 177.600 101.907 178.500 102.148 C 178.995 102.281,184.755 102.392,191.300 102.395 L 203.200 102.400 203.200 87.977 C 203.200 68.764,203.787 66.632,210.194 62.582 C 211.187 61.954,212.000 61.286,212.000 61.097 C 212.000 60.908,212.180 60.864,212.400 61.000 C 212.620 61.136,212.800 61.057,212.800 60.824 C 212.800 60.591,212.440 60.400,212.000 60.400 C 211.560 60.400,211.200 60.201,211.200 59.957 C 211.200 59.714,210.975 59.600,210.700 59.705 C 210.425 59.809,209.750 59.709,209.200 59.482 C 207.421 58.747,195.276 58.058,194.676 58.658 M213.978 61.641 C 214.517 61.856,215.192 62.227,215.478 62.465 C 215.779 62.715,216.000 62.735,216.000 62.513 C 216.000 62.087,214.237 61.186,213.481 61.225 C 213.217 61.239,213.440 61.427,213.978 61.641 M222.180 88.400 C 222.180 95.990,222.234 99.095,222.299 95.300 C 222.365 91.505,222.365 85.295,222.299 81.500 C 222.234 77.705,222.180 80.810,222.180 88.400 M276.600 194.744 C 270.504 196.043,268.056 204.219,272.504 208.423 C 277.294 212.950,284.762 210.750,286.332 204.350 C 287.686 198.834,282.310 193.528,276.600 194.744 M134.447 199.915 C 131.567 200.221,128.717 203.000,128.000 206.201 C 126.721 211.907,132.304 217.510,137.700 215.936 C 147.975 212.940,145.100 198.781,134.447 199.915 M164.600 296.286 C 159.386 297.542,156.739 304.381,159.772 308.759 C 164.072 314.966,173.505 312.844,174.618 305.420 C 175.441 299.931,170.013 294.981,164.600 296.286 M15.866 370.581 C 15.171 371.108,15.192 371.176,16.266 371.869 C 17.581 372.717,18.747 373.768,23.400 378.300 C 25.264 380.115,26.880 381.600,26.991 381.600 C 27.103 381.600,28.963 383.355,31.124 385.500 C 33.285 387.645,35.851 389.940,36.827 390.599 C 38.672 391.847,43.200 396.304,43.200 396.874 C 43.200 397.053,43.500 397.200,43.867 397.200 C 44.233 397.200,44.412 397.321,44.264 397.469 C 44.117 397.617,44.762 398.246,45.698 398.867 L 47.400 399.997 59.900 399.998 C 72.302 400.000,73.315 399.886,71.600 398.685 C 70.889 398.187,69.012 396.478,59.208 387.400 C 52.974 381.627,51.666 380.423,49.403 378.372 C 48.085 377.177,45.777 375.030,44.275 373.600 C 42.772 372.170,41.151 370.781,40.672 370.514 C 39.328 369.765,16.863 369.826,15.866 370.581 M374.800 379.347 C 373.372 380.602,372.276 382.045,373.393 381.200 C 374.621 380.270,376.101 378.767,375.942 378.610 C 375.864 378.532,375.350 378.864,374.800 379.347 M365.585 387.984 C 364.823 388.635,364.380 389.172,364.600 389.177 C 364.820 389.183,365.609 388.650,366.354 387.994 C 367.099 387.337,367.542 386.800,367.339 386.800 C 367.136 386.800,366.347 387.333,365.585 387.984 M356.235 396.603 C 355.595 397.153,355.158 397.691,355.265 397.798 C 355.371 397.904,355.974 397.454,356.604 396.796 C 357.999 395.339,357.816 395.243,356.235 396.603 " stroke="none" fill="#27b3ca" fill-rule="evenodd"></path><path id="path4" d="M11.461 342.894 C 11.208 343.056,10.498 343.191,9.884 343.194 C 8.604 343.201,6.208 344.344,4.917 345.565 C 4.431 346.024,3.846 346.400,3.617 346.400 C 3.388 346.400,3.200 346.552,3.200 346.738 C 3.200 346.924,2.750 347.599,2.200 348.238 C 1.651 348.877,1.201 349.610,1.200 349.867 C 1.200 350.123,0.975 350.408,0.700 350.500 C -0.017 350.739,-0.017 362.461,0.700 362.700 C 0.975 362.792,1.200 363.126,1.200 363.442 C 1.200 364.044,5.340 368.400,5.912 368.400 C 6.498 368.400,8.394 369.391,8.397 369.700 C 8.399 369.865,9.132 370.000,10.026 370.000 C 10.921 370.000,11.972 370.171,12.362 370.379 C 13.174 370.814,14.800 370.501,14.800 369.910 C 14.800 369.691,14.190 369.584,13.445 369.671 C 12.461 369.786,12.145 369.688,12.288 369.314 C 12.431 368.941,11.980 368.800,10.643 368.800 C 9.629 368.800,8.800 368.620,8.800 368.400 C 8.800 368.180,8.513 368.000,8.162 368.000 C 6.882 368.000,4.180 365.698,2.879 363.500 C 2.520 362.895,2.067 362.400,1.871 362.400 C 1.675 362.400,1.616 362.135,1.740 361.812 C 1.864 361.488,1.704 360.961,1.383 360.640 C 0.717 359.974,0.524 352.800,1.172 352.800 C 1.377 352.800,1.602 352.436,1.672 351.991 C 1.784 351.286,2.066 351.430,3.883 353.123 C 6.052 355.143,7.689 355.989,10.906 356.749 C 13.635 357.395,386.365 357.395,389.094 356.749 C 392.299 355.991,393.946 355.145,396.087 353.156 L 398.140 351.248 398.670 352.270 C 398.994 352.894,399.200 354.676,399.200 356.846 C 399.200 359.213,399.350 360.400,399.650 360.400 C 401.343 360.400,399.441 349.784,397.379 347.722 C 397.061 347.403,396.800 346.976,396.800 346.771 C 396.800 346.567,396.530 346.400,396.200 346.400 C 395.870 346.400,395.600 346.265,395.599 346.100 C 395.598 345.522,391.908 343.475,390.262 343.140 C 388.046 342.688,355.963 342.733,355.414 343.188 C 354.744 343.745,44.789 343.829,44.445 343.273 C 44.129 342.761,12.244 342.395,11.461 342.894 M398.400 361.600 C 398.400 362.040,398.220 362.400,398.000 362.400 C 397.780 362.400,397.600 362.675,397.600 363.011 C 397.600 363.346,396.795 364.426,395.811 365.411 C 394.826 366.395,393.746 367.200,393.411 367.200 C 393.075 367.200,392.800 367.380,392.800 367.600 C 392.800 367.820,392.530 368.000,392.200 368.000 C 391.870 368.000,391.600 368.180,391.600 368.400 C 391.600 368.620,390.880 368.800,390.000 368.800 C 388.844 368.800,388.400 368.967,388.400 369.400 C 388.400 370.092,390.989 370.265,391.400 369.600 C 391.536 369.380,391.997 369.200,392.424 369.200 C 392.851 369.200,393.200 369.020,393.200 368.800 C 393.200 368.580,393.458 368.400,393.774 368.400 C 394.090 368.400,395.350 367.398,396.574 366.174 C 397.798 364.950,398.800 363.690,398.800 363.374 C 398.800 363.058,398.980 362.800,399.200 362.800 C 399.420 362.800,399.600 362.350,399.600 361.800 C 399.600 361.178,399.373 360.800,399.000 360.800 C 398.667 360.800,398.400 361.156,398.400 361.600 M384.800 370.111 C 384.800 370.465,385.289 370.575,386.398 370.469 C 388.310 370.286,388.135 369.600,386.176 369.600 C 385.327 369.600,384.800 369.795,384.800 370.111 " stroke="none" fill="#bbdbeb" fill-rule="evenodd"></path><path id="path5" d="M221.364 102.396 C 221.114 102.646,213.097 102.833,199.784 102.900 L 178.600 103.007 199.851 103.104 C 218.333 103.187,221.167 103.122,221.600 102.600 C 222.156 101.930,221.981 101.779,221.364 102.396 M219.023 185.483 C 217.590 185.708,214.599 187.704,214.223 188.685 C 214.025 189.199,214.264 189.106,215.074 188.351 C 219.323 184.397,225.385 185.049,228.211 189.763 C 228.751 190.663,229.194 191.147,229.196 190.838 C 229.216 187.922,223.302 184.809,219.023 185.483 M212.688 191.333 C 212.530 191.736,212.411 192.456,212.425 192.933 C 212.449 193.756,212.471 193.750,212.840 192.825 C 213.054 192.289,213.173 191.569,213.103 191.225 C 212.999 190.711,212.925 190.730,212.688 191.333 M229.333 194.000 C 229.333 195.414,229.470 196.216,229.661 195.916 C 229.841 195.632,229.988 194.770,229.988 194.000 C 229.988 193.230,229.841 192.368,229.661 192.084 C 229.470 191.784,229.333 192.586,229.333 194.000 M212.406 195.033 C 212.409 195.455,212.595 196.070,212.818 196.400 C 213.115 196.838,213.152 196.676,212.956 195.800 C 212.627 194.329,212.398 194.010,212.406 195.033 M228.832 197.209 C 228.777 198.261,226.489 200.672,224.709 201.553 C 223.769 202.019,223.288 202.400,223.641 202.400 C 225.231 202.400,229.519 198.244,229.076 197.132 C 228.917 196.734,228.855 196.753,228.832 197.209 M213.795 198.708 C 214.533 200.232,217.344 202.404,218.560 202.391 C 219.144 202.385,218.913 202.161,217.800 201.654 C 216.286 200.965,215.185 200.019,213.779 198.200 C 213.241 197.504,213.243 197.569,213.795 198.708 M220.305 202.683 C 220.802 202.779,221.522 202.775,221.905 202.675 C 222.287 202.575,221.880 202.496,221.000 202.501 C 220.120 202.505,219.807 202.587,220.305 202.683 M280.649 314.215 C 280.512 314.573,280.421 315.346,280.446 315.933 C 280.480 316.732,280.570 316.598,280.804 315.400 C 281.135 313.700,281.062 313.140,280.649 314.215 M260.101 318.200 C 260.105 319.080,260.187 319.393,260.283 318.895 C 260.379 318.398,260.375 317.678,260.275 317.295 C 260.175 316.913,260.096 317.320,260.101 318.200 M212.000 343.200 L 69.400 343.402 212.076 343.501 C 306.870 343.567,354.836 343.466,355.000 343.200 C 355.136 342.980,355.102 342.845,354.924 342.899 C 354.746 342.954,290.430 343.089,212.000 343.200 M51.525 343.899 C 54.893 343.966,60.293 343.966,63.525 343.899 C 66.756 343.832,64.000 343.777,57.400 343.777 C 50.800 343.777,48.156 343.832,51.525 343.899 " stroke="none" fill="#898577" fill-rule="evenodd"></path><path id="path6" d="M140.600 102.400 C 140.464 102.620,139.643 102.800,138.776 102.800 C 137.909 102.800,137.200 102.980,137.200 103.200 C 137.200 103.420,136.924 103.600,136.587 103.600 C 136.249 103.600,135.349 104.224,134.587 104.987 C 133.824 105.749,133.200 106.649,133.200 106.987 C 133.200 107.324,133.020 107.600,132.800 107.600 C 132.580 107.600,132.400 108.230,132.400 109.000 C 132.400 109.770,132.220 110.400,132.000 110.400 C 131.746 110.400,131.600 113.532,131.600 118.996 L 131.600 127.592 113.500 127.696 C 101.685 127.764,95.435 127.939,95.500 128.200 C 95.607 128.630,105.485 128.641,231.285 128.363 C 271.922 128.273,304.862 128.078,304.485 127.928 C 304.108 127.779,295.835 127.644,286.100 127.628 L 268.400 127.600 268.400 119.000 C 268.400 113.533,268.254 110.400,268.000 110.400 C 267.780 110.400,267.600 109.770,267.600 109.000 C 267.600 108.230,267.420 107.600,267.200 107.600 C 266.980 107.600,266.800 107.324,266.800 106.987 C 266.800 106.191,264.209 103.600,263.413 103.600 C 263.076 103.600,262.800 103.420,262.800 103.200 C 262.800 102.980,262.080 102.800,261.200 102.800 C 260.320 102.800,259.600 102.620,259.600 102.400 C 259.600 101.673,222.206 101.870,221.600 102.600 C 221.169 103.119,218.267 103.200,199.980 103.200 C 181.737 103.200,178.775 103.118,178.257 102.600 C 177.528 101.871,141.047 101.677,140.600 102.400 M92.000 129.033 C 92.000 129.740,92.861 129.617,93.108 128.875 C 93.195 128.614,92.982 128.400,92.633 128.400 C 92.285 128.400,92.000 128.685,92.000 129.033 M90.400 129.600 C 90.400 129.820,90.040 130.000,89.600 130.000 C 89.160 130.000,88.800 130.180,88.800 130.400 C 88.800 130.620,88.525 130.800,88.189 130.800 C 87.854 130.800,86.774 131.605,85.789 132.589 C 84.070 134.309,83.585 135.200,84.369 135.200 C 84.827 135.200,88.000 131.998,88.000 131.536 C 88.000 131.351,88.234 131.200,88.520 131.200 C 89.439 131.200,91.194 130.216,91.197 129.700 C 91.199 129.425,91.020 129.200,90.800 129.200 C 90.580 129.200,90.400 129.380,90.400 129.600 M311.200 130.225 C 311.200 130.525,312.273 131.600,312.571 131.600 C 313.080 131.600,312.751 130.962,312.000 130.493 C 311.560 130.218,311.200 130.098,311.200 130.225 M83.200 136.400 C 83.200 136.840,83.020 137.200,82.800 137.200 C 82.580 137.200,82.400 137.470,82.400 137.800 C 82.400 138.130,82.567 138.400,82.771 138.400 C 83.233 138.400,84.396 136.130,84.091 135.824 C 83.623 135.356,83.200 135.630,83.200 136.400 M81.600 139.800 C 81.600 140.476,81.783 140.806,82.100 140.700 C 82.375 140.608,82.600 140.203,82.600 139.800 C 82.600 139.397,82.375 138.992,82.100 138.900 C 81.783 138.794,81.600 139.124,81.600 139.800 M318.400 148.952 L 318.400 155.104 315.700 156.893 C 293.505 171.593,287.999 174.971,284.200 176.214 C 277.261 178.486,272.846 177.176,260.800 169.274 C 256.290 166.315,252.195 163.709,251.700 163.483 C 251.205 163.257,250.800 162.920,250.800 162.736 C 250.800 162.551,250.603 162.400,250.362 162.400 C 250.121 162.400,249.446 162.071,248.862 161.668 C 245.317 159.225,238.003 158.149,234.400 159.541 C 232.058 160.445,228.000 162.572,228.000 162.896 C 228.000 163.063,227.831 163.200,227.624 163.200 C 227.417 163.200,223.862 165.423,219.724 168.140 C 210.614 174.120,209.553 174.711,204.400 176.659 C 198.907 178.735,194.111 176.978,180.076 167.744 C 175.609 164.805,171.806 162.400,171.625 162.400 C 171.445 162.400,171.088 162.147,170.831 161.837 C 170.574 161.528,169.247 160.825,167.882 160.275 C 160.575 157.334,156.315 157.986,148.272 163.278 C 146.331 164.555,144.677 165.600,144.595 165.600 C 144.513 165.600,141.972 167.242,138.948 169.249 C 122.524 180.148,119.958 179.932,98.458 165.851 C 95.519 163.926,93.038 162.429,92.944 162.523 C 92.759 162.708,101.066 168.240,102.895 169.150 C 103.503 169.452,104.000 169.857,104.000 170.050 C 104.000 170.242,104.188 170.400,104.418 170.400 C 104.648 170.400,106.133 171.270,107.718 172.332 C 109.303 173.395,111.185 174.519,111.900 174.830 C 112.615 175.141,113.200 175.531,113.200 175.698 C 113.200 175.864,113.614 176.000,114.120 176.000 C 114.626 176.000,115.211 176.152,115.420 176.338 C 116.316 177.136,121.640 177.755,123.447 177.272 C 124.417 177.012,125.571 176.800,126.011 176.800 C 126.451 176.800,127.123 176.635,127.505 176.433 C 127.887 176.231,129.034 175.700,130.053 175.253 C 131.072 174.806,134.582 172.701,137.853 170.575 C 148.959 163.356,151.992 161.451,153.200 160.934 C 153.750 160.699,154.722 160.258,155.361 159.954 C 156.864 159.237,164.967 159.207,165.675 159.915 C 165.942 160.182,166.479 160.400,166.868 160.400 C 167.843 160.400,168.941 161.056,179.000 167.647 C 183.840 170.819,188.700 173.861,189.800 174.407 C 190.900 174.953,191.860 175.535,191.933 175.700 C 192.007 175.865,192.412 176.000,192.833 176.000 C 193.255 176.000,193.600 176.141,193.600 176.313 C 193.600 176.915,197.423 177.784,200.000 177.769 C 202.465 177.753,206.400 176.903,206.400 176.385 C 206.400 176.253,207.300 175.900,208.400 175.600 C 209.500 175.300,210.400 174.908,210.400 174.728 C 210.400 174.547,210.636 174.400,210.925 174.400 C 211.213 174.400,211.836 174.040,212.308 173.600 C 212.780 173.160,213.273 172.800,213.402 172.800 C 213.532 172.800,215.708 171.450,218.239 169.800 C 220.770 168.150,222.929 166.800,223.037 166.800 C 223.145 166.800,223.620 166.440,224.092 166.000 C 224.564 165.560,225.187 165.200,225.475 165.200 C 225.764 165.200,226.000 165.020,226.000 164.800 C 226.000 164.580,226.236 164.400,226.525 164.400 C 226.813 164.400,227.407 164.085,227.845 163.700 C 229.328 162.395,233.043 160.400,233.989 160.400 C 234.409 160.400,234.864 160.220,235.000 160.000 C 235.139 159.775,237.063 159.600,239.400 159.600 C 241.737 159.600,243.661 159.775,243.800 160.000 C 243.936 160.220,244.361 160.400,244.744 160.400 C 245.619 160.400,247.593 161.299,247.597 161.700 C 247.599 161.865,247.793 162.000,248.028 162.000 C 248.263 162.000,249.241 162.540,250.200 163.200 C 251.159 163.860,252.137 164.400,252.372 164.400 C 252.607 164.400,252.800 164.550,252.800 164.732 C 252.800 164.915,253.295 165.320,253.900 165.632 C 254.505 165.945,255.180 166.338,255.400 166.507 C 255.782 166.800,257.384 167.840,265.314 172.940 C 267.246 174.183,269.091 175.200,269.414 175.200 C 269.736 175.200,270.000 175.380,270.000 175.600 C 270.000 175.820,270.349 176.000,270.776 176.000 C 271.203 176.000,271.664 176.180,271.800 176.400 C 271.936 176.620,272.656 176.800,273.400 176.800 C 274.144 176.800,274.864 176.980,275.000 177.200 C 275.136 177.420,276.846 177.600,278.800 177.600 C 280.754 177.600,282.464 177.420,282.600 177.200 C 282.736 176.980,283.289 176.800,283.829 176.800 C 284.369 176.800,285.123 176.640,285.505 176.445 C 285.887 176.250,287.415 175.487,288.900 174.749 C 290.385 174.012,291.600 173.272,291.600 173.104 C 291.600 172.937,291.798 172.800,292.040 172.800 C 292.282 172.800,295.621 170.730,299.460 168.200 C 303.298 165.670,306.610 163.600,306.820 163.600 C 307.029 163.600,307.200 163.450,307.200 163.268 C 307.200 163.085,307.695 162.680,308.300 162.368 C 308.905 162.055,309.749 161.485,310.175 161.100 C 310.602 160.715,311.187 160.400,311.475 160.400 C 311.764 160.400,312.000 160.220,312.000 160.000 C 312.000 159.780,312.236 159.600,312.525 159.600 C 312.813 159.600,313.398 159.285,313.825 158.900 C 314.251 158.515,315.095 157.945,315.700 157.632 C 316.305 157.320,316.800 156.915,316.800 156.732 C 316.800 156.550,317.083 156.400,317.429 156.400 C 318.981 156.400,319.200 155.488,319.200 149.029 C 319.200 145.143,319.050 142.800,318.800 142.800 C 318.551 142.800,318.400 145.117,318.400 148.952 M81.056 143.478 C 80.915 143.618,80.800 146.309,80.800 149.456 L 80.800 155.179 82.100 155.849 C 82.815 156.217,84.660 157.359,86.200 158.388 C 89.856 160.830,90.000 160.910,90.000 160.491 C 90.000 160.295,89.505 159.880,88.900 159.568 C 88.295 159.255,87.461 158.694,87.046 158.320 C 86.631 157.946,85.731 157.362,85.046 157.021 C 82.021 155.520,82.000 155.467,82.000 149.259 C 82.000 144.149,81.773 142.760,81.056 143.478 M91.194 161.582 C 91.741 162.002,92.268 162.266,92.365 162.169 C 92.591 161.942,91.129 160.827,90.600 160.822 C 90.380 160.820,90.647 161.161,91.194 161.582 M161.506 192.661 C 157.102 194.982,157.049 202.153,161.418 204.568 C 161.848 204.805,162.290 205.098,162.400 205.218 C 162.668 205.510,170.077 209.970,172.151 211.089 C 178.078 214.284,184.817 208.235,181.810 202.420 C 181.209 201.258,178.145 198.400,177.500 198.400 C 177.304 198.400,176.359 197.860,175.400 197.200 C 174.441 196.540,173.463 196.000,173.228 196.000 C 172.993 196.000,172.800 195.841,172.800 195.647 C 172.800 195.452,172.485 195.193,172.100 195.071 C 171.399 194.849,169.176 193.583,168.800 193.192 C 167.638 191.982,163.382 191.673,161.506 192.661 M167.519 193.126 C 179.485 198.997,183.649 203.636,181.152 208.314 C 179.119 212.122,175.106 212.577,170.528 209.517 C 169.608 208.903,168.768 208.400,168.660 208.400 C 168.140 208.400,161.642 204.158,160.492 203.068 C 155.376 198.219,161.176 190.014,167.519 193.126 M244.600 206.359 C 242.400 207.426,239.545 208.795,238.256 209.401 C 232.253 212.221,230.539 217.360,234.343 221.129 C 237.190 223.950,239.203 224.038,244.600 221.578 C 255.691 216.523,255.908 216.367,257.548 212.286 C 258.224 210.603,257.336 208.149,255.311 206.105 C 252.807 203.579,250.206 203.641,244.600 206.359 M60.080 233.052 C 60.521 233.493,61.067 233.620,61.766 233.444 C 63.380 233.039,62.981 232.400,61.114 232.400 C 59.556 232.400,59.478 232.449,60.080 233.052 M81.740 232.894 C 82.287 233.243,195.094 233.195,267.400 232.813 C 305.437 232.613,288.093 232.551,199.940 232.572 C 134.676 232.587,81.486 232.732,81.740 232.894 M339.000 232.800 C 339.136 233.020,339.507 233.200,339.824 233.200 C 340.141 233.200,340.400 233.020,340.400 232.800 C 340.400 232.580,340.029 232.400,339.576 232.400 C 339.123 232.400,338.864 232.580,339.000 232.800 M57.600 233.533 C 57.600 234.097,58.051 234.355,58.639 234.130 C 59.474 233.809,59.317 233.200,58.400 233.200 C 57.960 233.200,57.600 233.350,57.600 233.533 M52.060 236.651 C 51.543 237.202,51.231 237.764,51.366 237.900 C 51.664 238.197,53.684 236.747,53.908 236.076 C 54.183 235.251,53.039 235.607,52.060 236.651 M48.105 240.708 C 47.613 241.308,47.208 242.025,47.205 242.300 C 47.202 242.575,47.020 242.800,46.800 242.800 C 46.580 242.800,46.400 243.070,46.400 243.400 C 46.400 244.457,47.223 244.042,47.790 242.700 C 48.092 241.985,48.713 241.135,49.169 240.812 C 50.101 240.152,50.254 239.596,49.500 239.608 C 49.225 239.612,48.597 240.107,48.105 240.708 M351.200 240.629 C 351.200 241.053,352.436 242.097,352.667 241.867 C 352.792 241.741,352.617 241.360,352.276 241.019 C 351.641 240.384,351.200 240.224,351.200 240.629 M45.600 245.000 C 45.600 245.702,45.768 245.910,46.200 245.745 C 46.530 245.618,46.800 245.283,46.800 245.000 C 46.800 244.717,46.530 244.382,46.200 244.255 C 45.768 244.090,45.600 244.298,45.600 245.000 M44.954 247.251 C 44.979 247.737,45.240 248.214,45.534 248.311 C 45.897 248.432,46.025 248.197,45.934 247.576 C 45.760 246.387,44.894 246.100,44.954 247.251 M354.400 247.000 C 354.400 247.330,354.580 247.600,354.800 247.600 C 355.020 247.600,355.200 247.330,355.200 247.000 C 355.200 246.670,355.020 246.400,354.800 246.400 C 354.580 246.400,354.400 246.670,354.400 247.000 M355.194 257.476 C 355.191 261.174,355.056 264.386,354.894 264.612 C 354.598 265.028,334.351 278.360,331.912 279.745 C 331.190 280.155,330.510 280.605,330.400 280.745 C 330.290 280.885,329.248 281.500,328.084 282.110 C 321.216 285.714,313.101 285.492,307.328 281.544 C 306.408 280.915,305.565 280.400,305.455 280.400 C 305.344 280.400,302.684 278.698,299.543 276.617 C 296.402 274.537,293.750 272.917,293.649 273.017 C 293.417 273.250,293.175 273.065,297.485 275.941 C 299.511 277.293,301.356 278.400,301.585 278.400 C 301.813 278.400,302.000 278.550,302.000 278.732 C 302.000 278.915,302.495 279.320,303.100 279.632 C 303.705 279.945,304.549 280.515,304.975 280.900 C 305.402 281.285,305.972 281.600,306.242 281.600 C 306.512 281.600,306.793 281.735,306.867 281.900 C 307.050 282.312,310.294 283.858,312.000 284.346 C 312.770 284.566,314.134 284.956,315.030 285.214 C 317.139 285.819,323.701 285.207,324.227 284.356 C 324.348 284.160,324.792 284.000,325.213 284.000 C 325.634 284.000,326.748 283.542,327.689 282.982 C 328.630 282.423,329.715 281.862,330.100 281.736 C 330.485 281.610,330.800 281.348,330.800 281.153 C 330.800 280.959,331.036 280.800,331.325 280.800 C 331.613 280.800,332.236 280.440,332.708 280.000 C 333.180 279.560,333.720 279.200,333.908 279.200 C 334.096 279.200,334.598 278.885,335.025 278.500 C 335.451 278.115,336.292 277.546,336.893 277.236 C 337.495 276.926,338.342 276.341,338.777 275.936 C 339.211 275.531,339.720 275.200,339.908 275.200 C 340.096 275.200,340.607 274.885,341.045 274.500 C 341.483 274.115,342.192 273.603,342.620 273.362 C 344.383 272.373,345.382 271.784,345.780 271.498 C 348.102 269.829,351.650 267.600,351.982 267.600 C 352.212 267.600,352.400 267.420,352.400 267.200 C 352.400 266.980,352.583 266.800,352.806 266.800 C 353.029 266.800,353.836 266.395,354.601 265.900 L 355.990 265.000 355.995 258.124 C 355.998 253.965,355.842 251.149,355.600 251.000 C 355.339 250.839,355.198 253.097,355.194 257.476 M44.243 251.833 C 44.109 252.181,44.000 255.210,44.000 258.565 L 44.000 264.665 45.100 265.230 C 46.147 265.769,55.359 271.655,56.200 272.323 C 56.420 272.497,56.870 272.761,57.200 272.908 C 57.530 273.055,60.500 274.978,63.800 277.182 C 71.301 282.191,72.814 283.060,75.775 284.058 C 82.017 286.163,88.602 284.957,94.853 280.563 C 95.919 279.813,96.882 279.200,96.993 279.200 C 97.104 279.200,100.391 277.084,104.297 274.498 C 113.462 268.431,115.610 267.381,119.693 266.973 C 124.624 266.481,128.048 267.741,135.688 272.859 C 138.267 274.587,140.479 276.000,140.605 276.000 C 140.731 276.000,141.220 276.360,141.692 276.800 C 142.164 277.240,142.787 277.600,143.075 277.600 C 143.364 277.600,143.600 277.750,143.600 277.932 C 143.600 278.115,144.095 278.515,144.700 278.820 C 145.305 279.126,146.561 279.882,147.490 280.500 C 155.714 285.973,161.660 286.821,168.400 283.481 C 172.856 281.273,174.948 280.055,175.133 279.558 C 175.207 279.361,175.428 279.200,175.625 279.200 C 175.822 279.200,178.462 277.573,181.491 275.584 C 190.955 269.372,191.507 269.044,194.223 268.011 C 200.824 265.499,205.281 266.772,216.903 274.486 C 220.809 277.079,224.102 279.200,224.220 279.200 C 224.337 279.200,224.651 279.383,224.917 279.606 C 229.266 283.258,236.694 285.931,241.100 285.431 C 244.533 285.042,252.459 281.483,254.000 279.639 C 254.323 279.253,256.539 277.970,257.300 277.729 C 257.685 277.607,258.000 277.348,258.000 277.153 C 258.000 276.959,258.320 276.800,258.712 276.800 C 259.103 276.800,259.683 276.440,260.000 276.000 C 260.317 275.560,260.814 275.200,261.105 275.200 C 261.396 275.200,262.020 274.840,262.492 274.400 C 262.964 273.960,263.587 273.600,263.875 273.600 C 264.164 273.600,264.400 273.432,264.400 273.227 C 264.400 273.022,264.759 272.740,265.198 272.601 C 265.636 272.462,266.229 272.134,266.515 271.874 C 270.343 268.380,279.854 266.158,283.694 267.860 C 286.619 269.156,288.827 270.336,290.529 271.513 C 291.591 272.247,292.650 272.783,292.883 272.706 C 293.300 272.567,289.359 269.883,287.000 268.700 C 282.888 266.636,278.896 265.920,276.160 266.753 C 275.522 266.948,274.190 267.344,273.200 267.635 C 270.876 268.317,270.157 268.723,263.098 273.340 C 259.852 275.463,257.111 277.200,257.008 277.200 C 256.905 277.200,254.909 278.460,252.572 280.000 C 250.235 281.540,248.159 282.800,247.957 282.800 C 247.756 282.800,246.828 283.144,245.896 283.564 C 238.856 286.738,234.370 285.359,219.161 275.348 C 199.993 262.729,199.760 262.748,175.600 278.775 C 167.014 284.471,161.456 286.182,156.800 284.562 C 154.575 283.788,148.824 280.922,147.969 280.162 C 147.621 279.853,147.227 279.600,147.093 279.600 C 146.959 279.600,143.193 277.207,138.725 274.281 C 128.141 267.353,125.980 266.400,120.847 266.400 C 116.197 266.400,114.418 267.252,101.832 275.505 C 84.656 286.769,79.590 287.312,67.738 279.157 C 66.813 278.521,65.863 278.000,65.628 278.000 C 65.393 278.000,65.200 277.820,65.200 277.600 C 65.200 277.380,64.930 277.200,64.600 277.200 C 64.270 277.200,64.000 277.020,64.000 276.800 C 64.000 276.580,63.730 276.400,63.400 276.400 C 63.070 276.400,62.800 276.220,62.800 276.000 C 62.800 275.780,62.564 275.600,62.275 275.600 C 61.987 275.600,61.394 275.267,60.957 274.861 C 60.521 274.454,59.978 274.049,59.752 273.961 C 59.525 273.872,56.165 271.730,52.285 269.200 L 45.229 264.600 45.215 257.900 C 45.201 251.826,44.920 250.068,44.243 251.833 M219.400 303.130 C 218.300 303.743,216.140 305.027,214.600 305.984 C 213.060 306.941,211.396 307.921,210.903 308.162 C 210.410 308.403,210.005 308.735,210.003 308.900 C 210.001 309.065,209.775 309.206,209.500 309.213 C 209.225 309.220,208.510 309.656,207.912 310.183 C 201.301 316.003,208.058 325.549,215.735 321.236 C 217.529 320.229,222.896 316.975,225.466 315.336 C 233.848 309.992,228.043 298.311,219.400 303.130 M224.487 302.873 C 227.679 303.830,229.643 307.004,228.981 310.134 C 228.149 314.058,214.938 322.320,210.674 321.582 C 207.248 320.988,203.761 315.184,206.000 313.800 C 206.220 313.664,206.400 313.285,206.400 312.958 C 206.400 311.789,209.778 309.264,216.326 305.539 C 217.055 305.124,218.125 304.473,218.703 304.092 C 219.694 303.440,221.770 302.553,222.554 302.448 C 222.748 302.421,223.618 302.613,224.487 302.873 M106.868 304.797 C 103.700 305.546,100.800 309.380,100.800 312.817 C 100.800 319.562,108.371 323.736,113.813 319.991 C 121.905 314.424,116.467 302.526,106.868 304.797 M135.463 314.704 C 130.975 315.138,128.553 321.591,131.430 325.448 C 132.757 327.227,144.602 333.024,147.808 333.463 C 152.394 334.092,156.084 329.568,154.818 324.867 C 154.043 321.989,153.141 321.401,140.600 315.604 C 138.673 314.713,137.499 314.507,135.463 314.704 M146.516 318.988 C 153.779 322.589,154.554 323.341,154.554 326.797 C 154.554 332.289,149.749 334.347,143.583 331.496 C 132.573 326.407,131.590 325.735,130.786 322.748 C 129.563 318.206,133.841 314.124,138.518 315.370 C 139.353 315.593,142.952 317.221,146.516 318.988 " stroke="none" fill="#b37e4b" fill-rule="evenodd"></path><path id="path7" d="M178.345 102.506 C 178.514 102.674,184.220 102.764,191.026 102.706 L 203.400 102.599 190.720 102.400 C 183.745 102.290,178.177 102.338,178.345 102.506 M215.000 102.400 L 208.600 102.631 214.876 102.715 C 218.723 102.767,221.248 102.645,221.400 102.400 C 221.536 102.180,221.592 102.038,221.524 102.085 C 221.456 102.131,218.520 102.273,215.000 102.400 M216.474 187.192 C 212.474 190.090,211.579 194.789,214.265 198.793 C 214.779 199.559,215.200 200.048,215.200 199.879 C 215.200 199.710,214.885 199.094,214.500 198.509 C 211.639 194.168,213.672 188.205,218.600 186.483 C 219.535 186.156,219.614 186.056,218.960 186.032 C 218.498 186.014,217.380 186.536,216.474 187.192 M223.200 186.286 C 223.530 186.409,224.340 186.766,225.000 187.079 L 226.200 187.648 225.200 186.833 C 224.650 186.385,223.840 186.028,223.400 186.040 C 222.828 186.057,222.771 186.127,223.200 186.286 M226.400 187.746 C 226.400 187.881,226.667 188.308,226.992 188.695 C 227.318 189.083,227.871 189.760,228.221 190.200 C 228.668 190.762,228.640 190.605,228.128 189.669 C 227.425 188.385,226.400 187.244,226.400 187.746 M228.916 194.000 C 228.916 196.541,228.968 196.771,229.252 195.500 C 229.437 194.675,229.437 193.325,229.252 192.500 C 228.968 191.229,228.916 191.459,228.916 194.000 M227.633 198.547 C 225.666 201.729,220.921 202.891,217.475 201.034 C 216.417 200.463,215.674 200.196,215.825 200.440 C 216.983 202.313,222.110 202.910,224.806 201.484 C 226.513 200.582,229.148 197.815,228.714 197.381 C 228.592 197.258,228.105 197.783,227.633 198.547 M286.800 309.473 C 288.650 309.777,290.126 310.380,297.400 313.806 C 302.718 316.310,303.792 317.164,304.559 319.494 C 305.391 322.021,303.849 326.400,302.129 326.400 C 301.864 326.400,301.536 326.580,301.400 326.800 C 300.810 327.755,302.217 327.082,303.372 325.857 C 306.945 322.069,305.669 317.238,300.441 314.760 C 289.721 309.677,288.470 309.170,286.850 309.254 L 285.800 309.309 286.800 309.473 M250.400 310.042 C 249.278 310.245,249.497 310.305,251.500 310.347 C 252.875 310.376,254.000 310.330,254.000 310.245 C 254.000 309.926,251.748 309.800,250.400 310.042 M283.783 310.345 C 280.801 312.163,279.942 316.871,282.079 319.676 C 283.078 320.987,290.584 325.149,291.071 324.663 C 291.165 324.569,289.548 323.662,287.478 322.649 C 281.940 319.937,280.677 318.196,281.410 314.285 C 281.684 312.828,283.692 310.400,284.624 310.400 C 284.915 310.400,285.264 310.220,285.400 310.000 C 285.779 309.386,285.128 309.525,283.783 310.345 M246.724 311.515 C 242.218 314.829,242.300 321.975,246.879 325.005 C 248.381 325.999,251.719 326.980,250.400 326.040 C 250.070 325.805,249.479 325.609,249.086 325.606 C 246.604 325.585,243.950 321.771,243.950 318.226 C 243.950 314.959,244.953 313.201,248.004 311.121 C 248.552 310.748,248.820 310.439,248.600 310.436 C 248.380 310.432,247.536 310.918,246.724 311.515 M255.703 311.314 C 257.337 312.303,259.196 314.726,259.206 315.879 C 259.209 316.275,259.400 316.870,259.630 317.200 C 260.405 318.311,259.565 315.084,258.716 313.687 C 257.939 312.408,255.425 310.398,254.607 310.402 C 254.383 310.403,254.877 310.814,255.703 311.314 M259.388 319.853 C 258.739 322.827,256.633 325.065,253.800 325.791 C 253.140 325.960,252.826 326.182,253.103 326.284 C 255.301 327.092,261.382 320.449,259.849 318.915 C 259.733 318.800,259.526 319.222,259.388 319.853 M293.740 326.046 C 295.027 326.710,296.169 327.164,296.278 327.056 C 296.477 326.856,292.223 324.784,291.688 324.819 C 291.530 324.830,292.453 325.382,293.740 326.046 M297.700 327.487 C 298.305 327.578,299.295 327.578,299.900 327.487 C 300.505 327.395,300.010 327.320,298.800 327.320 C 297.590 327.320,297.095 327.395,297.700 327.487 " stroke="none" fill="#6c9ca4" fill-rule="evenodd"></path><path id="path8" d="M277.600 193.998 C 277.270 194.212,276.591 194.391,276.091 194.394 C 272.990 194.415,269.831 198.565,269.847 202.600 C 269.882 211.537,281.082 214.674,285.871 207.087 C 288.781 202.478,285.774 195.194,280.599 194.317 C 279.940 194.205,279.130 194.000,278.800 193.861 C 278.470 193.722,277.930 193.784,277.600 193.998 M282.161 195.489 C 285.290 197.091,287.146 201.034,286.332 204.350 C 283.971 213.972,270.350 212.463,270.350 202.580 C 270.350 196.475,276.673 192.679,282.161 195.489 M132.818 199.831 C 130.894 200.666,128.800 202.328,128.800 203.020 C 128.800 203.339,128.620 203.600,128.400 203.600 C 128.180 203.600,128.000 203.949,128.000 204.376 C 128.000 204.803,127.820 205.264,127.600 205.400 C 126.890 205.839,127.157 209.517,128.035 211.385 C 131.621 219.015,141.430 218.421,144.289 210.400 C 146.612 203.884,139.205 197.060,132.818 199.831 M140.093 200.922 C 145.003 203.611,145.340 211.630,140.669 214.626 C 134.294 218.716,126.375 213.450,128.000 206.201 C 129.218 200.766,135.112 198.193,140.093 200.922 M167.949 296.253 C 177.730 298.647,176.418 312.400,166.409 312.400 C 157.154 312.400,155.588 298.457,164.600 296.286 C 165.158 296.151,165.038 296.079,164.200 296.047 C 162.686 295.989,159.807 298.196,158.915 300.097 C 155.957 306.402,159.706 312.843,166.369 312.906 C 168.704 312.928,171.200 312.228,171.200 311.551 C 171.200 311.358,171.464 311.200,171.786 311.200 C 172.108 311.200,172.557 310.854,172.783 310.431 C 173.010 310.008,173.423 309.423,173.702 309.131 C 177.755 304.888,174.022 296.502,167.800 295.872 L 165.400 295.629 167.949 296.253 M242.956 316.971 C 242.835 317.285,242.804 317.960,242.886 318.471 C 242.995 319.154,243.088 319.004,243.237 317.900 C 243.447 316.347,243.336 315.981,242.956 316.971 " stroke="none" fill="#547c60" fill-rule="evenodd"></path></g></svg>