<svg xmlns="http://www.w3.org/2000/svg" xmlns:xlink="http://www.w3.org/1999/xlink" viewBox="0 0 536.97 432.43"><defs><style>.cls-1{fill:none;}.cls-2{fill:#231f20;opacity:0.1;}.cls-3{fill:#5d1f4e;}.cls-4{fill:#551a47;}.cls-5{fill:#49103c;}.cls-11,.cls-6{fill:#ffc12b;}.cls-7{fill:#f0a718;}.cls-8{fill:#fff;}.cls-9{fill:#eff0f0;}.cls-10{fill:#414042;}.cls-11{opacity:0.05;}.cls-12{fill:#fbaf18;}.cls-13{fill:#e89e23;}.cls-14{fill:#e77f28;}.cls-15{fill:#4e103f;}.cls-16{clip-path:url(#clip-path);}.cls-17{fill:#551746;}.cls-18{clip-path:url(#clip-path-2);}.cls-19{fill:#ee862f;}.cls-20{clip-path:url(#clip-path-3);}.cls-21{fill:#f68e37;}</style><clipPath id="clip-path"><rect class="cls-1" x="184.7" y="92.84" width="172.27" height="94.25" rx="6.69"/></clipPath><clipPath id="clip-path-2"><rect class="cls-1" x="135.97" y="172.21" width="265.03" height="121.94" rx="9.88"/></clipPath><clipPath id="clip-path-3"><rect class="cls-1" x="89.1" y="263.66" width="358.78" height="144.21" rx="14.07"/></clipPath></defs><g id="Camada_2" data-name="Camada 2"><g id="object"><ellipse class="cls-2" cx="268.49" cy="407.49" rx="268.49" ry="24.94"/><rect class="cls-3" x="219.5" y="38.15" width="10.42" height="58.02"/><path class="cls-4" d="M227,34.87a3.81,3.81,0,0,1-3.5.58,6.53,6.53,0,0,1-1.44-.38,9.41,9.41,0,0,0-2.59,3.08h10.42A9,9,0,0,0,227,34.87Z"/><path class="cls-5" d="M227,34.87a4.35,4.35,0,0,0-2.32-.71,4.48,4.48,0,0,0-2.62.91,6.53,6.53,0,0,0,1.44.38A3.81,3.81,0,0,0,227,34.87Z"/><polygon class="cls-6" points="229.92 44.07 219.5 47.89 219.5 43.85 229.92 40.03 229.92 44.07"/><polygon class="cls-6" points="229.92 52.92 219.5 56.74 219.5 52.7 229.92 48.88 229.92 52.92"/><polygon class="cls-6" points="229.92 61.77 219.5 65.59 219.5 61.55 229.92 57.73 229.92 61.77"/><polygon class="cls-6" points="229.92 70.62 219.5 74.44 219.5 70.4 229.92 66.58 229.92 70.62"/><polygon class="cls-6" points="229.92 79.47 219.5 83.29 219.5 79.25 229.92 75.42 229.92 79.47"/><polygon class="cls-6" points="229.92 88.31 219.5 92.14 219.5 88.09 229.92 84.27 229.92 88.31"/><path class="cls-7" d="M225,31.13a13.15,13.15,0,0,0,3.82-3c6.37-8.18-1.29-18-2.47-19.58a16.76,16.76,0,0,0-3.21-3.06,8.21,8.21,0,0,1-.24,5.51c-1.43,3.67-4.66,7.6-3.86,12.2.53,3.16,3.11,7.13,5.76,7.79Z"/><path class="cls-6" d="M225,31.13a4,4,0,0,0,2.12-1.79,8.12,8.12,0,0,0-.31-8.1c-.63-1.07-2.33-3.64-2.31-4.08,0,.65-1.29,2.86-2.3,6s-.71,4.65.33,6.17A4.23,4.23,0,0,0,225,31.13Z"/><path class="cls-8" d="M225,31.13a4,4,0,0,0,1.41-5.73c-.46-.78-1.84-2.9-1.84-2.9a43.51,43.51,0,0,0-1.84,4.29C221.91,29.06,224,30.85,225,31.13Z"/><rect class="cls-9" x="224.19" y="33.24" width="1.24" height="1.65"/><path class="cls-10" d="M225.43,33.35h-1.24c0-.36,0-.69,0-1a15.74,15.74,0,0,0-.32-4.57l1.19-.45a17.76,17.76,0,0,1,.36,5.17C225.44,32.79,225.43,33.07,225.43,33.35Z"/><path class="cls-11" d="M235.87,15.55c0,8.59-4.94,15.55-11,15.55s-11-7-11-15.55S218.75,0,224.84,0,235.87,7,235.87,15.55Z"/><rect class="cls-3" x="314.86" y="38.15" width="10.42" height="58.02"/><path class="cls-4" d="M322.39,34.87a3.81,3.81,0,0,1-3.5.58,6.68,6.68,0,0,1-1.44-.38,9.41,9.41,0,0,0-2.59,3.08h10.43A9.11,9.11,0,0,0,322.39,34.87Z"/><path class="cls-5" d="M322.39,34.87a4.34,4.34,0,0,0-2.31-.71,4.49,4.49,0,0,0-2.63.91,6.68,6.68,0,0,0,1.44.38A3.81,3.81,0,0,0,322.39,34.87Z"/><polygon class="cls-6" points="325.29 44.07 314.87 47.89 314.87 43.85 325.29 40.03 325.29 44.07"/><polygon class="cls-6" points="325.29 52.92 314.87 56.74 314.87 52.7 325.29 48.88 325.29 52.92"/><polygon class="cls-6" points="325.29 61.77 314.87 65.59 314.87 61.55 325.29 57.73 325.29 61.77"/><polygon class="cls-6" points="325.29 70.62 314.87 74.44 314.87 70.4 325.29 66.58 325.29 70.62"/><polygon class="cls-6" points="325.29 79.47 314.87 83.29 314.87 79.25 325.29 75.42 325.29 79.47"/><polygon class="cls-6" points="325.29 88.31 314.87 92.14 314.87 88.09 325.29 84.27 325.29 88.31"/><path class="cls-7" d="M320.39,31.13a13.33,13.33,0,0,0,3.83-3c6.37-8.18-1.29-18-2.48-19.58a16.76,16.76,0,0,0-3.21-3.06,8.15,8.15,0,0,1-.24,5.51c-1.43,3.67-4.66,7.6-3.85,12.2.52,3.16,3.1,7.13,5.75,7.79Z"/><path class="cls-6" d="M320.39,31.13a4,4,0,0,0,2.12-1.79,8.06,8.06,0,0,0-.31-8.1c-.63-1.07-2.33-3.64-2.31-4.08,0,.65-1.28,2.86-2.29,6s-.72,4.65.33,6.17A4.18,4.18,0,0,0,320.39,31.13Z"/><path class="cls-8" d="M320.35,31.13a4,4,0,0,0,1.41-5.73c-.46-.78-1.84-2.9-1.84-2.9a43.51,43.51,0,0,0-1.84,4.29C317.28,29.06,319.39,30.85,320.35,31.13Z"/><rect class="cls-9" x="319.55" y="33.24" width="1.24" height="1.65"/><path class="cls-10" d="M320.79,33.35h-1.24c0-.36,0-.69,0-1a15.38,15.38,0,0,0-.32-4.57l1.2-.45a18.13,18.13,0,0,1,.36,5.17C320.81,32.79,320.79,33.07,320.79,33.35Z"/><path class="cls-11" d="M331.23,15.55c0,8.59-4.94,15.55-11,15.55s-11-7-11-15.55S314.11,0,320.2,0,331.23,7,331.23,15.55Z"/><rect class="cls-6" x="266.21" y="38.77" width="10.31" height="57.41"/><path class="cls-12" d="M273.66,35.52a3.78,3.78,0,0,1-3.47.57,6.48,6.48,0,0,1-1.42-.37,9.24,9.24,0,0,0-2.56,3.05h10.31A9,9,0,0,0,273.66,35.52Z"/><path class="cls-13" d="M273.66,35.52a4.3,4.3,0,0,0-2.3-.7,4.45,4.45,0,0,0-2.59.9,6.48,6.48,0,0,0,1.42.37A3.78,3.78,0,0,0,273.66,35.52Z"/><path class="cls-7" d="M271.67,31.82a13.41,13.41,0,0,0,3.79-2.95c7.32-9.2-1.27-17.79-2.45-19.38a16.16,16.16,0,0,0-3.18-3,8.12,8.12,0,0,1-.23,5.46c-1.42,3.62-4.62,7.51-3.81,12.06.51,3.13,3.07,7.06,5.69,7.71Z"/><path class="cls-6" d="M271.67,31.82a3.84,3.84,0,0,0,2.1-1.77,8,8,0,0,0-.3-8c-.63-1.06-2.31-3.6-2.29-4,0,.64-1.27,2.83-2.27,6s-.71,4.6.33,6.1A4.2,4.2,0,0,0,271.67,31.82Z"/><path class="cls-8" d="M271.64,31.82A3.93,3.93,0,0,0,273,26.15c-.45-.77-1.82-2.87-1.82-2.87a41.49,41.49,0,0,0-1.82,4.25C268.6,29.77,270.68,31.55,271.64,31.82Z"/><rect class="cls-9" x="270.84" y="33.9" width="1.22" height="1.63"/><path class="cls-10" d="M272.07,34h-1.23c0-.36,0-.69.05-1a15.71,15.71,0,0,0-.32-4.51l1.18-.45a18.11,18.11,0,0,1,.36,5.11C272.08,33.46,272.07,33.74,272.07,34Z"/><path class="cls-11" d="M282.4,16.41c0,8.49-4.89,15.38-10.91,15.38s-10.91-6.89-10.91-15.38S265.46,1,271.49,1,282.4,7.91,282.4,16.41Z"/><polygon class="cls-14" points="276.52 44.62 266.21 48.41 266.21 44.41 276.52 40.62 276.52 44.62"/><polygon class="cls-14" points="276.52 53.38 266.21 57.16 266.21 53.16 276.52 49.38 276.52 53.38"/><polygon class="cls-14" points="276.52 62.13 266.21 65.92 266.21 61.92 276.52 58.13 276.52 62.13"/><polygon class="cls-14" points="276.52 71.28 266.21 75.06 266.21 71.06 276.52 67.28 276.52 71.28"/><polygon class="cls-14" points="276.52 79.64 266.21 83.43 266.21 79.43 276.52 75.64 276.52 79.64"/><polygon class="cls-14" points="276.52 88.4 266.21 92.18 266.21 88.18 276.52 84.4 276.52 88.4"/><rect class="cls-15" x="184.7" y="92.84" width="172.27" height="94.25" rx="6.69"/><rect class="cls-8" x="184.7" y="139.19" width="172.27" height="7.88"/><g class="cls-16"><path class="cls-14" d="M160.35,55V99.71a24.42,24.42,0,0,0,46.12,11.2,24.39,24.39,0,0,0,43.38,0,24.39,24.39,0,0,0,43.38,0,24.39,24.39,0,0,0,43.38,0,24.42,24.42,0,0,0,46.12-11.2V55Z"/></g><path class="cls-6" d="M210.19,86.62a9.06,9.06,0,1,1-9.05-9.06A9,9,0,0,1,210.19,86.62Z"/><path class="cls-6" d="M256.57,86.62a9.06,9.06,0,1,1-9-9.06A9,9,0,0,1,256.57,86.62Z"/><path class="cls-6" d="M303,86.62a9.06,9.06,0,1,1-9.06-9.06A9.06,9.06,0,0,1,303,86.62Z"/><path class="cls-6" d="M349.34,86.62a9.06,9.06,0,1,1-9.06-9.06A9.06,9.06,0,0,1,349.34,86.62Z"/><rect class="cls-17" x="135.97" y="172.21" width="265.03" height="121.94" rx="9.88"/><g class="cls-18"><path class="cls-19" d="M423.21,140.36h-307V188h0v.27a28.22,28.22,0,0,0,53.27,13,28.22,28.22,0,0,0,50.12,0,28.22,28.22,0,0,0,50.12,0,28.22,28.22,0,0,0,50.12,0,28.22,28.22,0,0,0,50.11,0,28.22,28.22,0,0,0,53.28-13,2.44,2.44,0,0,0,0-.27h0Z"/></g><path class="cls-6" d="M162.62,166.77a9.06,9.06,0,1,1-9.06-9.06A9.06,9.06,0,0,1,162.62,166.77Z"/><path class="cls-6" d="M206.41,166.77a9.06,9.06,0,1,1-9-9.06A9,9,0,0,1,206.41,166.77Z"/><path class="cls-6" d="M252.79,166.77a9.05,9.05,0,1,1-9-9.06A9,9,0,0,1,252.79,166.77Z"/><path class="cls-6" d="M299.18,166.77a9.06,9.06,0,1,1-9.06-9.06A9.06,9.06,0,0,1,299.18,166.77Z"/><path class="cls-6" d="M345.56,166.77a9.06,9.06,0,1,1-9.05-9.06A9,9,0,0,1,345.56,166.77Z"/><path class="cls-6" d="M391.94,166.77a9.06,9.06,0,1,1-9.05-9.06A9,9,0,0,1,391.94,166.77Z"/><rect class="cls-3" x="89.1" y="263.66" width="358.78" height="144.21" rx="14.07"/><rect class="cls-8" x="89.1" y="370.75" width="358.78" height="10.16"/><rect class="cls-8" x="89.1" y="347.49" width="358.78" height="10.16"/><g class="cls-20"><path class="cls-21" d="M89.1,268.91A34.18,34.18,0,1,0,147.61,304a34.18,34.18,0,0,0,60.71,0A34.18,34.18,0,0,0,269,304a34.17,34.17,0,0,0,60.7,0,34.18,34.18,0,0,0,60.71,0A34.18,34.18,0,0,0,455,288.28V240.6H89.1Z"/></g><path class="cls-6" d="M115.3,258.81a9.06,9.06,0,1,1-9-9.06A9,9,0,0,1,115.3,258.81Z"/><path class="cls-6" d="M159.1,258.81a9.06,9.06,0,1,1-9-9.06A9.05,9.05,0,0,1,159.1,258.81Z"/><path class="cls-6" d="M205.48,258.81a9.06,9.06,0,1,1-9-9.06A9,9,0,0,1,205.48,258.81Z"/><path class="cls-6" d="M251.86,258.81a9.06,9.06,0,1,1-9.05-9.06A9,9,0,0,1,251.86,258.81Z"/><path class="cls-6" d="M298.25,258.81a9.06,9.06,0,1,1-9.06-9.06A9.06,9.06,0,0,1,298.25,258.81Z"/><path class="cls-6" d="M344.63,258.81a9.06,9.06,0,1,1-9.05-9.06A9,9,0,0,1,344.63,258.81Z"/><path class="cls-6" d="M391,258.81a9.06,9.06,0,1,1-9.05-9.06A9,9,0,0,1,391,258.81Z"/><path class="cls-6" d="M437.39,258.81a9.05,9.05,0,1,1-9.05-9.06A9,9,0,0,1,437.39,258.81Z"/></g></g></svg>