<svg xmlns="http://www.w3.org/2000/svg" viewBox="0 0 32 32"><path d="M8.44 11.56h8.7a1 1 0 0 0 0-2H8.44a1 1 0 0 0 0 2zM8.44 17h5.44a1 1 0 0 0 0-2H8.44a1 1 0 0 0 0 2z"/><path d="M8.44,22.44H20.22a1,1,0,0,0,.71-.29l8.46-8.46a2.09,2.09,0,0,0,0-3L27.85,9.19a2.09,2.09,0,0,0-3,0l-1.32,1.32V5.12A2.09,2.09,0,0,0,21.49,3H4.09A2.09,2.09,0,0,0,2,5.12V26.88A2.09,2.09,0,0,0,4.09,29H21.49a2.09,2.09,0,0,0,2.09-2.09V24a1,1,0,0,0-2,0v2.88a.09.09,0,0,1-.09.09H4.09A.09.09,0,0,1,4,26.88V5.12A.09.09,0,0,1,4.09,5H21.49a.09.09,0,0,1,.09.09v7.39l-5.15,5.15a1,1,0,0,0-.29.71v2.08H8.44a1,1,0,0,0,0,2Zm9.7-3.66,5.12-5.12.05-.05,3-3a.09.09,0,0,1,.12,0L28,12.15v.12l-8.17,8.17H18.14Z"/></svg>